# xmcd
#
# Track frame offsets:
#	300
#	19367
#	33423
#	51089
#	62924
#	75301
#	88637
#	111785
#	130287
#	146966
#	159250
#	175326
#	195063
#	212272
#
# Disc length: 3038 seconds
#
# Revision: 0
# Processed by: cddbd v1.5.1PL2 Copyright (c) Steve Scherf et al.
# Submitted via: dBpowerAMP V4.0
#
DISCID=b60bda0e
DTITLE=Chris Thile - How To Grow A Woman From The Ground
DYEAR=2006
DGENRE=
TTITLE0=Watch 'at Breakdown
TTITLE1=Dead Leaves and the Dirty Ground
TTITLE2=Stay Away
TTITLE3=O Santo De Polvora
TTITLE4=Wayside (Back In Time)
TTITLE5=You're an Angel, and I'm Gonna Cry
TTITLE6=How to Grow a Woman From the Ground
TTITLE7=The Beekeeper
TTITLE8=Brakeman's Blues
TTITLE9=If the Sea was Whiskey
TTITLE10=Cazadero
TTITLE11=Heart in a Cage
TTITLE12=I'm Yours If You Want Me
TTITLE13=The Eleventh Reel
EXTD=
EXTT0=
EXTT1=
EXTT2=
EXTT3=
EXTT4=
EXTT5=
EXTT6=
EXTT7=
EXTT8=
EXTT9=
EXTT10=
EXTT11=
EXTT12=
EXTT13=
PLAYORDER=
